<?xml version="1.0" standalone="no"?>
<!DOCTYPE svg PUBLIC "-//W3C//DTD SVG 20010904//EN"
 "http://www.w3.org/TR/2001/REC-SVG-20010904/DTD/svg10.dtd">
<svg version="1.0" xmlns="http://www.w3.org/2000/svg"
 width="304.000000pt" height="304.000000pt" viewBox="0 0 304.000000 304.000000"
 preserveAspectRatio="xMidYMid meet">

<g transform="translate(0.000000,304.000000) scale(0.100000,-0.100000)"
fill="#000000" stroke="none">
<path d="M1295 2894 c-283 -51 -530 -175 -733 -368 -126 -120 -210 -235 -287
-391 -103 -207 -145 -387 -145 -621 0 -665 460 -1224 1123 -1366 143 -30 399
-30 539 0 291 63 508 181 714 386 209 210 334 447 389 736 27 138 25 381 -4
517 -121 576 -567 1010 -1140 1107 -117 20 -345 20 -456 0z m460 -258 c434
-95 755 -405 877 -843 19 -68 22 -103 22 -273 0 -180 -2 -203 -26 -293 -108
-395 -414 -703 -808 -812 -117 -33 -353 -45 -478 -25 -363 58 -679 292 -842
623 -183 374 -155 797 76 1144 169 253 441 428 759 488 99 18 319 14 420 -9z"/>
<path d="M1459 2135 c-59 -32 -63 -51 -67 -282 l-4 -213 -215 0 -215 0 -33
-33 c-43 -43 -52 -79 -34 -130 27 -77 42 -82 284 -85 l213 -3 4 -208 c3 -177
6 -211 21 -234 38 -58 110 -77 174 -44 56 29 63 62 63 286 l0 201 201 0 c165
0 207 3 235 16 79 38 91 151 23 208 l-31 26 -214 0 -214 0 0 205 c0 223 -4
243 -56 284 -31 25 -96 27 -135 6z"/>
</g>
</svg>
