<svg width="536" height="477" viewBox="0 0 536 477" fill="none" xmlns="http://www.w3.org/2000/svg">
<path d="M221.2 477C222.748 477 223.971 476.617 224.035 476.599C224.409 476.492 224.72 476.382 224.901 476.316C225.279 476.178 225.649 476.024 225.941 475.899C226.552 475.639 227.315 475.292 228.166 474.896C229.89 474.094 232.287 472.943 235.227 471.51C241.122 468.636 249.377 464.543 259.184 459.641C278.806 449.832 304.735 436.738 330.629 423.582C356.524 410.426 382.403 397.2 401.924 387.124C411.681 382.088 419.872 377.827 425.69 374.753C428.591 373.22 430.944 371.96 432.619 371.037C433.446 370.581 434.176 370.17 434.748 369.832C435.022 369.67 435.356 369.467 435.68 369.253C435.837 369.15 436.091 368.978 436.376 368.761C436.453 368.703 437.128 368.209 437.85 367.403L438.162 367.039L438.404 366.741L438.622 366.426C440.081 364.318 440.503 362.016 440.63 361.36C440.85 360.23 441 358.964 441.117 357.668C441.352 355.044 441.521 351.413 441.647 346.631C441.901 337.015 442 321.991 442 299.4V250.333H451.733C466.82 250.333 478.737 249.25 488.187 245.264C498.074 241.093 504.287 234.203 509.104 225.113L509.566 224.227L509.574 224.213L509.581 224.199L514.655 214.221L515.416 64.9854C517.29 64.9501 519.102 64.8461 520.786 64.6152C522.91 64.3238 525.497 63.7474 527.945 62.3486C530.68 60.7856 532.788 58.455 534.03 55.5088C535.139 52.8771 535.333 50.2744 535.333 48.333C535.333 46.5491 535.359 42.396 532.964 38.5986C530.238 34.2761 525.95 32.5943 522.631 31.8047C519.351 31.0242 515.265 30.7089 510.561 30.54C505.711 30.366 499.48 30.333 491.6 30.333H472.662C472.606 25.0217 471.969 19.755 469.541 15.04C466.815 9.74395 462.548 6.47538 457.887 4.09863L457.888 4.09766C457.885 4.09609 457.881 4.09532 457.878 4.09375C457.876 4.09269 457.875 4.0909 457.873 4.08984L457.872 4.09082C455.426 2.8443 452.342 2.3806 450.567 2.13672C448.244 1.81759 445.453 1.57429 442.455 1.38965C436.428 1.01859 429.009 0.849228 421.661 0.866211C414.312 0.883203 406.871 1.0867 400.8 1.4834C397.778 1.68092 394.967 1.93498 392.621 2.25977C390.742 2.51984 387.778 2.98394 385.418 4.1123L385.378 4.13184L385.337 4.15137C380.656 6.4422 376.725 9.75032 374.08 14.833C371.683 19.4371 370.749 24.7549 370.31 30.333H317.876L312.207 37.7031L312.189 37.7256L312.171 37.749C310.197 40.3467 308.166 44.0347 308.269 48.7031C308.37 53.2845 310.487 56.8894 312.566 59.4805C314.448 61.865 316.86 62.9002 317.887 63.3018C319.256 63.8367 320.653 64.1625 321.862 64.3779C323.907 64.7424 326.236 64.9296 328.666 64.9824V72.4668C328.666 73.0651 328.664 73.6403 328.663 74.1934C327.191 73.4556 325.609 72.663 323.928 71.8174C313.583 66.6116 299.535 59.4879 284.283 51.6953L284.26 51.6826L284.237 51.6709C268.88 43.9255 254.585 36.8288 243.891 31.6748C238.556 29.1035 234.049 26.9833 230.731 25.501C229.087 24.7668 227.625 24.1393 226.455 23.6836C225.884 23.4615 225.235 23.2225 224.597 23.0273C224.283 22.9313 223.83 22.8024 223.307 22.6953C223.034 22.6393 222.184 22.4676 221.067 22.4697V22.4668C221.031 22.4668 220.995 22.4693 220.959 22.4697C220.892 22.4705 220.823 22.4714 220.753 22.4736C220.596 22.4786 220.444 22.4852 220.299 22.4961C219.494 22.5569 218.897 22.6947 218.696 22.7412C218.293 22.8346 217.956 22.9369 217.739 23.0059C217.299 23.1456 216.885 23.3012 216.567 23.4258C215.906 23.6842 215.121 24.0205 214.282 24.3916C212.577 25.1456 210.251 26.2232 207.418 27.5645C201.733 30.2566 193.76 34.1274 184.104 38.876C164.779 48.3796 138.579 61.4631 110.161 75.8057L110.153 75.8096L1.35496 130.841L0.933089 248.164V248.184C0.866428 287.98 0.899476 315.968 1.08348 334.168C1.17533 343.252 1.306 349.989 1.48485 354.565C1.57338 356.831 1.67912 358.716 1.81492 360.146C1.88048 360.837 1.97168 361.633 2.11571 362.396C2.18549 362.766 2.30849 363.348 2.52 364.003C2.61664 364.302 3.08426 365.827 4.32567 367.38C4.33458 367.391 4.3431 367.402 4.35203 367.413C4.3648 367.429 4.37719 367.445 4.39012 367.461L4.65965 367.777C5.42376 368.635 6.14584 369.153 6.19481 369.189C6.48145 369.405 6.73597 369.575 6.88914 369.675C7.20921 369.884 7.53954 370.081 7.81004 370.239C8.37403 370.57 9.09771 370.975 9.92039 371.425C11.5865 372.336 13.9336 373.585 16.8315 375.108C22.6412 378.162 30.8296 382.4 40.5864 387.413C60.1085 397.444 85.9983 410.625 111.9 423.738C137.802 436.852 163.733 449.907 183.338 459.688C193.137 464.576 201.376 468.657 207.248 471.521C210.176 472.949 212.557 474.095 214.26 474.892C215.101 475.285 215.847 475.625 216.438 475.881C216.72 476.003 217.073 476.152 217.431 476.286C217.6 476.35 217.899 476.458 218.258 476.565C218.438 476.619 218.736 476.703 219.107 476.781C219.38 476.839 220.174 477 221.2 477ZM133.157 180.333L133.158 180.332C107.705 167.539 84.5583 155.816 67.7827 147.245C63.9452 145.284 60.4452 143.49 57.3296 141.888C60.8201 140.085 64.7727 138.053 69.0981 135.838C86.2129 127.071 109.073 115.473 132.021 103.895C154.969 92.3165 177.988 80.768 195.42 72.1006C204.141 67.7649 211.443 64.1605 216.633 61.6367C218.37 60.792 219.855 60.0791 221.067 59.502C221.335 59.6262 221.619 59.7548 221.917 59.8945C224.977 61.3278 229.349 63.4417 234.739 66.0908C245.503 71.3815 260.16 78.7271 276.135 86.8477L328.619 113.754L328.4 142.257L328.071 170.797L275.112 197.397L275.103 197.401L221.321 224.477L133.157 180.333ZM421.867 214.333C395.007 214.333 382.02 214.329 375.112 213.964C371.913 213.795 370.709 213.572 370.313 213.472C370.306 213.467 370.299 213.461 370.29 213.456C370.161 213.371 370.007 213.264 369.718 213.062L369.532 212.933L369.34 212.812C368.308 212.159 366.194 209.934 365.455 208.656L365.437 208.626L365.419 208.597C365.157 208.15 365.161 208.217 365.041 207.61C364.81 206.438 364.549 204.116 364.342 199.027C363.935 188.985 363.801 170.388 363.6 133.745C363.534 113.037 363.534 94.0363 363.583 80.1025C363.604 74.2485 363.634 69.3024 363.671 65.5059C364.931 65.4553 366.381 65.4069 368.045 65.3633C378.076 65.1006 394.846 65 422 65H479.333V132.6C479.333 170.301 479.299 189.547 478.956 199.937C478.782 205.205 478.539 207.646 478.314 208.884C478.219 209.405 478.207 209.422 478.137 209.521L478.134 209.519C477.495 210.565 475.565 212.494 474.519 213.134L474.507 213.141C474.153 213.358 474.225 213.326 473.916 213.396C473.17 213.564 471.563 213.791 467.889 213.961C460.599 214.297 447.469 214.333 421.867 214.333ZM180.306 419.04L180.279 419.026L180.251 419.012C159.474 408.49 117.176 387.009 86.2134 371.527L35.3335 346.026V253.533C35.3335 226.48 35.3996 201.87 35.5161 184.032C35.5485 179.07 35.5859 174.639 35.6255 170.831C39.5423 172.77 44.1904 175.075 49.4487 177.688C66.473 186.151 89.8633 197.812 115.528 210.611L203.333 254.515V430.881L180.306 419.04ZM238.474 430.169C238.426 426.21 238.384 421.558 238.35 416.318C238.234 398.475 238.2 373.939 238.267 347.024L238.641 255.287L287.84 230.327L329.469 209.31C330.142 213.803 331.143 218.583 332.315 221.514L332.369 221.648L332.426 221.781C336.503 231.176 345.169 239.983 354.542 244.916C358.376 246.949 361.528 248.423 367.401 249.143C372.282 249.741 379.46 249.87 391.572 250.065L407.333 250.395V295.667C407.333 315.805 407.232 329.544 406.987 338.32C406.9 341.405 406.798 343.777 406.685 345.548C405.305 346.285 403.596 347.184 401.586 348.233C396.18 351.056 388.719 354.89 379.884 359.396C362.221 368.403 339.146 380.051 316.2 391.562C293.253 403.072 270.454 414.437 253.341 422.878C247.69 425.666 242.669 428.127 238.474 430.169Z" fill="black"/>
<path d="M380.667 95.5333C378.8 98.2 378.667 104.467 378.934 141.667C379.334 182.333 379.467 184.6 381.867 186.467C385.467 189 388.8 188.867 392 185.667C394.534 183.133 394.667 181.267 394.667 140.6C394.667 104.467 394.4 97.8 392.534 95.2667C389.734 91.1333 383.334 91.2667 380.667 95.5333Z" fill="black"/>
<path d="M416.934 94.7334C414.934 97 414.667 102.067 414.667 140.6C414.667 180.867 414.8 184.067 417.067 186.067C420.267 189 424.4 188.867 427.067 185.933C429.067 183.667 429.334 178.6 429.334 140.067C429.334 99.8 429.2 96.6 426.934 94.6C423.734 91.6667 419.6 91.8 416.934 94.7334Z" fill="black"/>
<path d="M451.6 94.7334C449.6 97.0001 449.333 102.067 449.333 139.8C449.333 176.2 449.6 182.867 451.467 185.4C453.867 189 458.8 189.267 461.733 185.933C463.733 183.667 464 178.6 464 139.933C464 102.2 463.733 96.2001 461.867 94.4667C459.067 91.6667 454.267 91.8001 451.6 94.7334Z" fill="black"/>
</svg>
