<?xml version="1.0" standalone="no"?>
<!DOCTYPE svg PUBLIC "-//W3C//DTD SVG 20010904//EN"
 "http://www.w3.org/TR/2001/REC-SVG-20010904/DTD/svg10.dtd">
<svg version="1.0" xmlns="http://www.w3.org/2000/svg"
 width="304.000000pt" height="304.000000pt" viewBox="0 0 304.000000 304.000000"
 preserveAspectRatio="xMidYMid meet">

<g transform="translate(0.000000,304.000000) scale(0.100000,-0.100000)"
fill="#000000" stroke="none">
<path d="M2326 2995 c-27 -8 -79 -28 -115 -46 -59 -29 -124 -91 -632 -598
-349 -349 -580 -588 -602 -623 -49 -74 -95 -192 -113 -285 -9 -50 -14 -144
-14 -286 0 -238 5 -262 70 -305 35 -23 35 -24 300 -20 242 4 271 6 335 27 86
28 180 78 254 136 31 24 297 286 592 582 536 537 537 538 578 624 80 167 80
331 0 498 -70 145 -203 255 -359 296 -68 18 -228 18 -294 0z m236 -291 c107
-36 178 -137 178 -255 0 -88 -29 -144 -127 -241 l-78 -78 -190 191 -190 190
90 88 c98 95 143 119 226 120 25 1 66 -6 91 -15z m-585 -1132 c-227 -227 -368
-361 -405 -383 -80 -49 -165 -68 -304 -68 l-118 -1 0 135 c0 148 15 215 66
298 15 23 184 201 377 395 l352 352 190 -190 190 -190 -348 -348z"/>
<path d="M329 2816 c-110 -31 -219 -116 -272 -214 -59 -108 -57 -75 -57 -1169
0 -704 3 -1018 11 -1055 28 -131 121 -248 244 -309 l70 -34 930 0 930 0 70 34
c122 60 215 175 244 302 6 24 11 167 11 317 0 232 -2 279 -16 308 -44 93 -166
110 -240 33 l-29 -30 -5 -282 c-5 -259 -7 -285 -25 -316 -11 -19 -33 -43 -48
-55 -28 -21 -32 -21 -880 -24 -951 -2 -895 -6 -944 67 l-23 34 0 1006 c0 980
1 1007 20 1038 41 69 33 67 562 73 462 5 477 6 505 26 89 65 77 201 -21 248
-30 14 -91 16 -513 15 -353 -1 -490 -4 -524 -13z"/>
</g>
</svg>
