<?xml version="1.0" standalone="no"?>
<!DOCTYPE svg PUBLIC "-//W3C//DTD SVG 20010904//EN"
 "http://www.w3.org/TR/2001/REC-SVG-20010904/DTD/svg10.dtd">
<svg version="1.0" xmlns="http://www.w3.org/2000/svg"
 width="336.000000pt" height="336.000000pt" viewBox="0 0 336.000000 336.000000"
 preserveAspectRatio="xMidYMid meet">

<g transform="translate(0.000000,336.000000) scale(0.100000,-0.100000)"
fill="#000000" stroke="none">
<path d="M1635 3141 c-34 -15 -413 -404 -425 -435 -22 -59 30 -136 92 -136 45
0 76 21 173 119 49 50 93 91 97 91 4 0 7 -160 7 -355 1 -223 5 -363 11 -375
36 -67 145 -66 180 1 7 12 11 144 11 374 0 195 3 355 7 355 4 0 48 -41 97 -91
97 -98 128 -119 173 -119 66 0 116 79 89 142 -8 18 -105 122 -214 231 -182
181 -203 199 -239 203 -21 2 -48 0 -59 -5z"/>
<path d="M645 2146 c-16 -8 -120 -104 -230 -215 l-200 -201 0 -50 0 -50 200
-201 c110 -111 215 -208 233 -216 63 -27 142 23 142 89 0 45 -21 76 -119 173
-50 49 -91 93 -91 97 0 4 160 7 355 7 225 0 362 4 375 11 67 36 66 144 -1 180
-12 7 -144 11 -374 11 -195 0 -355 3 -355 7 0 4 41 48 91 97 50 50 97 102 105
117 31 59 9 119 -52 144 -40 17 -41 17 -79 0z"/>
<path d="M2634 2146 c-59 -26 -80 -86 -50 -144 8 -15 55 -67 105 -117 50 -49
91 -93 91 -97 0 -4 -160 -7 -355 -7 -223 -1 -363 -5 -375 -11 -66 -36 -66
-145 0 -180 13 -7 150 -11 375 -11 195 0 355 -3 355 -7 0 -4 -41 -48 -91 -97
-98 -97 -119 -128 -119 -173 0 -66 79 -116 142 -89 18 8 123 105 233 216 l200
201 0 50 0 50 -200 201 c-174 175 -240 230 -272 229 -4 -1 -22 -7 -39 -14z"/>
<path d="M1622 1344 c-12 -8 -27 -24 -32 -35 -7 -12 -11 -144 -11 -374 0 -195
-3 -355 -7 -355 -4 0 -48 41 -97 91 -97 98 -128 119 -173 119 -66 0 -116 -79
-89 -142 8 -18 105 -123 216 -233 l201 -200 50 0 50 0 201 200 c111 110 208
215 216 233 27 63 -23 142 -89 142 -45 0 -76 -21 -173 -119 -49 -50 -93 -91
-97 -91 -4 0 -7 160 -7 355 -1 223 -5 363 -11 375 -16 30 -52 50 -90 50 -20 0
-46 -7 -58 -16z"/>
</g>
</svg>
