<?xml version="1.0" standalone="no"?>
<!DOCTYPE svg PUBLIC "-//W3C//DTD SVG 20010904//EN"
 "http://www.w3.org/TR/2001/REC-SVG-20010904/DTD/svg10.dtd">
<svg version="1.0" xmlns="http://www.w3.org/2000/svg"
 width="480.000000pt" height="480.000000pt" viewBox="0 0 480.000000 480.000000"
 preserveAspectRatio="xMidYMid meet">

<g transform="translate(0.000000,480.000000) scale(0.100000,-0.100000)"
fill="#000000" stroke="none">
<path d="M2275 4780 c-295 -95 -541 -474 -690 -1065 -24 -93 -53 -225 -65
-293 -20 -107 -25 -123 -44 -127 -12 -2 -61 -11 -111 -20 -49 -9 -162 -34
-250 -55 -625 -153 -1018 -410 -1100 -720 -29 -110 -14 -218 47 -340 43 -86
175 -220 291 -295 311 -202 844 -360 1397 -415 63 -6 130 -14 149 -16 l34 -5
-45 -47 c-25 -26 -51 -57 -57 -69 -27 -54 -2 -141 51 -173 37 -22 107 -27 141
-8 12 6 85 71 163 144 l141 133 164 6 c90 3 244 10 342 16 98 6 181 9 183 6
10 -9 -67 -328 -113 -470 -83 -259 -179 -447 -289 -566 -195 -211 -366 -139
-573 240 -59 107 -89 132 -157 132 -77 0 -134 -61 -134 -142 0 -83 144 -322
269 -447 311 -309 682 -222 948 223 137 229 236 517 317 917 l33 160 129 23
c394 72 764 204 1001 358 116 75 248 209 291 295 108 215 73 410 -105 600
-138 147 -377 283 -669 380 -143 47 -157 50 -196 40 -103 -28 -142 -152 -70
-228 20 -20 65 -41 167 -76 356 -122 594 -282 641 -429 15 -50 15 -57 0 -110
-38 -132 -226 -273 -522 -391 -152 -60 -614 -182 -627 -165 -2 2 0 38 4 79 16
149 22 751 10 936 -14 200 -41 431 -72 604 -23 130 -90 413 -113 479 -9 24
-15 46 -12 48 2 2 37 -8 78 -21 63 -22 80 -24 113 -15 108 30 140 177 52 242
-18 13 -113 54 -212 92 l-180 67 -40 71 c-117 208 -267 353 -420 409 -84 30
-211 34 -290 8z m201 -277 c37 -12 67 -34 124 -92 70 -72 160 -204 160 -235 0
-8 -34 -92 -75 -188 -80 -186 -88 -222 -55 -276 64 -104 192 -92 250 23 14 28
26 52 28 55 22 33 123 -445 156 -735 40 -343 45 -852 13 -1195 l-12 -125 -55
-7 c-127 -15 -371 -28 -518 -27 l-157 0 -120 141 c-66 77 -130 146 -141 154
-80 54 -189 21 -215 -66 -17 -55 -4 -102 41 -157 22 -26 40 -50 40 -53 0 -7
-52 -3 -250 21 -487 59 -939 197 -1189 364 -100 66 -186 161 -207 230 -17 52
-17 58 0 110 21 69 107 164 207 230 167 112 458 223 755 289 219 49 208 50
200 -26 -11 -108 -26 -408 -26 -538 0 -111 3 -131 23 -170 38 -74 116 -100
187 -61 67 36 74 59 77 290 3 199 18 477 29 552 l6 37 62 6 c177 19 338 26
586 26 257 0 277 1 308 20 97 59 93 185 -9 245 -31 18 -52 20 -304 19 -148 -1
-343 -7 -433 -14 -90 -6 -165 -10 -167 -8 -7 6 60 305 95 423 130 447 335 747
516 754 11 1 43 -6 70 -16z"/>
</g>
</svg>
