<?xml version="1.0" standalone="no"?>
<!DOCTYPE svg PUBLIC "-//W3C//DTD SVG 20010904//EN"
 "http://www.w3.org/TR/2001/REC-SVG-20010904/DTD/svg10.dtd">
<svg version="1.0" xmlns="http://www.w3.org/2000/svg"
 width="480.000000pt" height="480.000000pt" viewBox="0 0 480.000000 480.000000"
 preserveAspectRatio="xMidYMid meet">

<g transform="translate(0.000000,480.000000) scale(0.100000,-0.100000)"
fill="#000000" stroke="none">
<path d="M93 4780 c-64 -39 -68 -56 -71 -345 -4 -297 1 -329 56 -357 40 -20
88 -10 114 25 15 19 18 46 18 192 l0 170 258 -257 c141 -141 270 -262 285
-268 71 -26 143 45 117 116 -6 16 -129 147 -273 292 l-262 262 173 0 c189 0
218 7 240 55 19 42 14 74 -17 106 l-29 29 -289 0 c-268 0 -290 -1 -320 -20z"/>
<path d="M4130 4767 c-67 -23 -84 -114 -29 -159 18 -16 44 -18 185 -18 90 0
164 -3 164 -8 0 -4 -113 -120 -250 -257 -160 -160 -254 -261 -260 -281 -24
-71 47 -140 116 -114 16 6 147 129 292 273 l262 262 0 -172 c0 -187 6 -215 51
-239 45 -23 78 -17 110 17 l29 31 0 287 c0 407 21 385 -370 388 -188 2 -275
-1 -300 -10z"/>
<path d="M2353 4419 c-18 -5 -128 -65 -245 -133 -117 -67 -481 -277 -808 -466
-327 -188 -606 -352 -619 -364 -13 -11 -32 -39 -42 -61 -18 -38 -19 -88 -19
-995 0 -907 1 -957 19 -995 10 -22 29 -50 42 -61 13 -12 292 -176 619 -364
327 -189 691 -398 807 -466 117 -68 231 -128 254 -134 51 -14 89 -6 159 33
357 201 1582 915 1604 935 59 55 56 7 56 1052 0 1045 3 997 -56 1052 -22 20
-1077 636 -1604 936 -63 35 -119 46 -167 31z m787 -606 c407 -235 739 -431
737 -436 -1 -5 -335 -181 -742 -392 l-740 -384 -80 43 c-44 23 -376 197 -737
386 -362 188 -658 345 -658 349 0 4 1458 853 1478 860 1 1 335 -191 742 -426z
m-1749 -898 c305 -159 633 -331 729 -381 l175 -92 5 -234 c5 -241 10 -266 50
-288 32 -17 77 -11 107 14 l28 24 5 242 5 241 740 384 c407 212 743 385 748
385 4 0 7 -390 7 -867 l-1 -868 -743 -428 c-408 -235 -745 -427 -749 -427 -4
0 -7 129 -7 286 l0 286 -29 29 c-45 44 -114 38 -143 -14 -9 -16 -14 -102 -18
-303 l-5 -282 -740 428 -740 427 -3 867 c-2 717 0 867 11 864 7 -2 263 -133
568 -293z"/>
<path d="M2336 1644 c-59 -59 -20 -154 64 -154 55 0 90 34 90 88 0 83 -96 124
-154 66z"/>
<path d="M740 869 c-14 -5 -143 -128 -287 -272 l-263 -262 0 172 c0 187 -6
215 -51 239 -43 22 -77 17 -110 -15 l-29 -29 0 -289 c0 -409 -21 -387 365
-391 297 -4 329 1 357 56 19 40 10 87 -23 115 -18 15 -44 17 -185 17 -90 0
-164 3 -164 8 0 4 113 120 250 257 160 160 254 261 260 281 24 72 -50 141
-120 113z"/>
<path d="M3985 861 c-47 -20 -72 -72 -55 -117 6 -16 129 -147 273 -292 l262
-262 -172 0 c-187 0 -215 -6 -239 -51 -22 -43 -17 -77 15 -110 l29 -29 289 0
c409 0 387 -21 391 365 4 297 -1 329 -56 357 -40 19 -87 10 -114 -23 -16 -18
-18 -44 -18 -185 0 -90 -3 -164 -8 -164 -4 0 -117 111 -252 246 -214 215 -285
276 -317 273 -4 0 -17 -4 -28 -8z"/>
</g>
</svg>
