<svg xmlns="http://www.w3.org/2000/svg" xmlns:xlink="http://www.w3.org/1999/xlink" version="1.1" x="0px" y="0px" viewBox="0 0 100 125" enable-background="new 0 0 100 100" xml:space="preserve"><g><path d="M71.067,39.351c-0.056,0.023-0.114,0.034-0.17,0.034c-0.177,0-0.346-0.105-0.417-0.28l-0.656-1.604   c-0.094-0.23,0.016-0.494,0.246-0.587c0.23-0.095,0.494,0.016,0.587,0.246l0.656,1.604C71.408,38.994,71.297,39.257,71.067,39.351z    M76.382,53.54l0.656,1.604c0.071,0.174,0.24,0.28,0.417,0.28c0.057,0,0.115-0.011,0.17-0.033c0.23-0.094,0.34-0.357,0.246-0.587   l-0.656-1.604c-0.094-0.23-0.358-0.34-0.587-0.246C76.398,53.046,76.288,53.309,76.382,53.54z M71.136,40.709l0.656,1.604   c0.071,0.174,0.24,0.28,0.417,0.28c0.057,0,0.115-0.011,0.17-0.034c0.23-0.094,0.34-0.357,0.246-0.587l-0.656-1.604   c-0.095-0.23-0.358-0.341-0.587-0.246C71.152,40.215,71.042,40.479,71.136,40.709z M73.759,47.125l0.656,1.604   c0.071,0.174,0.239,0.28,0.417,0.28c0.057,0,0.115-0.011,0.171-0.034c0.23-0.094,0.34-0.357,0.246-0.587l-0.656-1.604   c-0.095-0.23-0.358-0.342-0.587-0.246C73.775,46.631,73.665,46.894,73.759,47.125z M73.691,45.767   c0.23-0.094,0.34-0.357,0.246-0.587l-0.656-1.604c-0.094-0.23-0.357-0.341-0.587-0.246c-0.23,0.094-0.34,0.357-0.246,0.587   l0.656,1.604c0.071,0.174,0.24,0.28,0.417,0.28C73.577,45.8,73.635,45.79,73.691,45.767z M76.313,52.182   c0.23-0.094,0.34-0.357,0.247-0.587l-0.656-1.604c-0.094-0.231-0.358-0.342-0.587-0.247c-0.23,0.094-0.341,0.357-0.247,0.587   l0.656,1.604c0.071,0.175,0.239,0.28,0.417,0.28C76.2,52.215,76.258,52.205,76.313,52.182z M78.937,58.597   c0.23-0.094,0.341-0.357,0.247-0.587l-0.655-1.604c-0.095-0.23-0.359-0.341-0.587-0.247c-0.23,0.094-0.341,0.357-0.247,0.587   l0.655,1.604c0.071,0.174,0.24,0.28,0.417,0.28C78.823,58.63,78.881,58.62,78.937,58.597z M80.655,60.147l-0.592,0.013   l-0.224-0.546c-0.094-0.23-0.359-0.341-0.587-0.247c-0.23,0.094-0.34,0.357-0.247,0.587l0.218,0.534l-0.438,0.376   c-0.188,0.162-0.209,0.446-0.047,0.635c0.089,0.104,0.215,0.157,0.341,0.157c0.104,0,0.208-0.036,0.293-0.109l0.562-0.483   l0.739-0.016c0.249-0.005,0.446-0.211,0.44-0.459C81.109,60.339,80.907,60.173,80.655,60.147z M88.66,59.974l-2.001,0.043   c-0.249,0.005-0.446,0.211-0.44,0.46c0.005,0.245,0.206,0.44,0.45,0.44c0.003,0,0.006,0,0.01,0l2.001-0.043   c0.249-0.005,0.446-0.211,0.44-0.46S88.934,59.996,88.66,59.974z M84.658,60.061l-2.002,0.043c-0.249,0.005-0.446,0.211-0.44,0.46   c0.005,0.245,0.206,0.44,0.45,0.44c0.003,0,0.006,0,0.01,0l2.001-0.043c0.249-0.005,0.446-0.211,0.44-0.46   C85.112,60.253,84.902,60.066,84.658,60.061z M56.066,83.063c-0.247-0.054-0.482,0.105-0.532,0.349l-0.43,2.061   c-0.051,0.244,0.105,0.482,0.349,0.532c0.031,0.007,0.062,0.01,0.092,0.01c0.209,0,0.396-0.146,0.44-0.358l0.43-2.061   C56.466,83.352,56.31,83.114,56.066,83.063z M55.208,87.185c-0.248-0.055-0.482,0.105-0.533,0.349l-0.429,2.061   c-0.051,0.244,0.105,0.482,0.349,0.532c0.031,0.007,0.062,0.01,0.092,0.01c0.208,0,0.396-0.146,0.44-0.358l0.43-2.061   C55.607,87.474,55.451,87.235,55.208,87.185z M56.977,79.631l-0.438,0.377l-0.495-0.298c-0.215-0.13-0.49-0.06-0.618,0.153   c-0.128,0.213-0.06,0.49,0.153,0.618l0.503,0.303l-0.119,0.567c-0.051,0.244,0.105,0.482,0.349,0.532   c0.031,0.007,0.062,0.01,0.092,0.01c0.209,0,0.396-0.146,0.44-0.358l0.153-0.733l0.567-0.488c0.188-0.162,0.209-0.446,0.047-0.635   C57.449,79.489,57.164,79.469,56.977,79.631z M74.937,64.176l-1.283,1.104c-0.188,0.162-0.209,0.446-0.047,0.635   c0.089,0.104,0.215,0.157,0.341,0.157c0.104,0,0.208-0.036,0.293-0.109l1.283-1.104c0.189-0.163,0.21-0.446,0.048-0.635   C75.41,64.034,75.124,64.013,74.937,64.176z M72.372,66.384l-1.283,1.104c-0.189,0.162-0.21,0.446-0.048,0.635   c0.089,0.104,0.215,0.156,0.341,0.156c0.104,0,0.209-0.035,0.293-0.109l1.283-1.104c0.188-0.162,0.209-0.446,0.047-0.635   C72.844,66.242,72.559,66.221,72.372,66.384z M59.542,77.423l-1.283,1.104c-0.188,0.162-0.21,0.446-0.047,0.635   c0.089,0.104,0.215,0.157,0.341,0.157c0.104,0,0.209-0.036,0.294-0.109l1.283-1.104c0.188-0.163,0.21-0.446,0.047-0.635   S59.73,77.26,59.542,77.423z M77.503,61.968l-1.283,1.104c-0.189,0.162-0.21,0.446-0.048,0.635   c0.089,0.103,0.215,0.156,0.341,0.156c0.104,0,0.209-0.036,0.294-0.109l1.283-1.104c0.188-0.162,0.209-0.446,0.047-0.635   C77.976,61.827,77.69,61.806,77.503,61.968z M69.806,68.592l-1.283,1.104c-0.188,0.163-0.209,0.446-0.047,0.635   c0.089,0.103,0.215,0.156,0.341,0.156c0.104,0,0.209-0.036,0.294-0.109l1.283-1.104c0.188-0.162,0.21-0.446,0.047-0.635   C70.278,68.45,69.993,68.429,69.806,68.592z M64.674,73.007l-1.283,1.104c-0.188,0.162-0.209,0.446-0.047,0.635   c0.089,0.103,0.215,0.156,0.341,0.156c0.104,0,0.209-0.035,0.294-0.109l1.283-1.104c0.188-0.162,0.21-0.446,0.047-0.635   C65.146,72.866,64.861,72.845,64.674,73.007z M62.108,75.215l-1.283,1.104c-0.188,0.163-0.209,0.446-0.047,0.635   c0.089,0.103,0.215,0.156,0.341,0.156c0.104,0,0.209-0.036,0.293-0.109l1.283-1.104c0.188-0.162,0.209-0.446,0.047-0.635   C62.581,75.074,62.295,75.052,62.108,75.215z M47.995,74.861l-1.609-0.97c-0.214-0.129-0.49-0.061-0.618,0.153   c-0.128,0.213-0.06,0.489,0.153,0.618l1.609,0.97c0.073,0.044,0.153,0.064,0.232,0.064c0.152,0,0.302-0.077,0.386-0.217   C48.277,75.266,48.208,74.989,47.995,74.861z M44.776,72.921l-1.61-0.97c-0.213-0.129-0.489-0.061-0.617,0.153   c-0.128,0.213-0.06,0.489,0.153,0.618l1.61,0.97c0.073,0.044,0.152,0.064,0.231,0.064c0.153,0,0.302-0.078,0.386-0.218   C45.058,73.327,44.989,73.05,44.776,72.921z M54.434,78.74l-1.609-0.97c-0.213-0.13-0.489-0.061-0.618,0.153   s-0.06,0.49,0.153,0.618l1.61,0.97c0.073,0.044,0.153,0.064,0.232,0.064c0.152,0,0.301-0.077,0.386-0.218   C54.716,79.145,54.647,78.868,54.434,78.74z M51.215,76.8l-1.61-0.97c-0.212-0.129-0.49-0.06-0.618,0.153   c-0.128,0.213-0.06,0.489,0.153,0.618l1.61,0.97c0.072,0.044,0.152,0.064,0.231,0.064c0.153,0,0.302-0.078,0.386-0.218   C51.497,77.206,51.428,76.929,51.215,76.8z M41.557,70.982l-1.61-0.97c-0.213-0.13-0.49-0.06-0.618,0.153   c-0.128,0.213-0.06,0.49,0.153,0.618l1.61,0.97c0.072,0.044,0.152,0.065,0.231,0.065c0.153,0,0.302-0.078,0.386-0.218   C41.838,71.387,41.77,71.11,41.557,70.982z M38.337,69.042l-1.61-0.97c-0.213-0.129-0.49-0.06-0.618,0.153   c-0.128,0.213-0.06,0.49,0.153,0.618l1.61,0.97c0.073,0.044,0.152,0.064,0.232,0.064c0.152,0,0.301-0.078,0.386-0.218   C38.619,69.448,38.551,69.171,38.337,69.042z M39.049,35.046l-0.67,0.061l-0.444-0.504c-0.164-0.187-0.449-0.204-0.635-0.04   c-0.187,0.165-0.205,0.449-0.04,0.635l0.44,0.499l-0.16,0.645c-0.06,0.241,0.087,0.485,0.329,0.545   c0.037,0.009,0.073,0.013,0.109,0.013c0.202,0,0.386-0.137,0.437-0.342l0.139-0.562l0.578-0.053   c0.248-0.023,0.43-0.242,0.408-0.489C39.516,35.206,39.298,35.024,39.049,35.046z M62.264,33.377   c-0.022-0.248-0.242-0.431-0.489-0.407l-1.894,0.173c-0.248,0.023-0.43,0.242-0.408,0.489c0.021,0.234,0.218,0.41,0.448,0.41   c0.014,0,0.028,0,0.042-0.002l1.894-0.173C62.104,33.843,62.286,33.625,62.264,33.377z M57.987,33.315l-1.894,0.173   c-0.248,0.023-0.43,0.242-0.408,0.489c0.022,0.234,0.218,0.409,0.448,0.409c0.014,0,0.028,0,0.042-0.001l1.894-0.173   c0.248-0.023,0.43-0.242,0.408-0.489C58.453,33.475,58.235,33.292,57.987,33.315z M42.836,34.7l-1.894,0.173   c-0.248,0.023-0.43,0.242-0.408,0.489c0.021,0.234,0.218,0.409,0.448,0.409c0.014,0,0.028,0,0.042-0.001l1.894-0.173   c0.248-0.023,0.43-0.242,0.407-0.489C43.303,34.859,43.084,34.677,42.836,34.7z M50.412,34.008l-1.894,0.173   c-0.248,0.023-0.43,0.242-0.408,0.489c0.021,0.234,0.218,0.409,0.448,0.409c0.014,0,0.027,0,0.041-0.001l1.894-0.173   c0.248-0.023,0.43-0.242,0.408-0.489C50.878,34.167,50.656,33.985,50.412,34.008z M46.624,34.354l-1.894,0.173   c-0.248,0.022-0.43,0.242-0.408,0.489c0.022,0.234,0.218,0.409,0.448,0.409c0.014,0,0.028,0,0.042-0.002l1.893-0.173   c0.248-0.023,0.43-0.242,0.408-0.49C47.09,34.514,46.87,34.331,46.624,34.354z M54.199,33.662l-1.894,0.172   c-0.248,0.023-0.43,0.242-0.407,0.49c0.021,0.234,0.217,0.409,0.448,0.409c0.014,0,0.027,0,0.042-0.002l1.894-0.173   c0.247-0.022,0.43-0.242,0.407-0.489C54.666,33.821,54.45,33.639,54.199,33.662z M71.866,20.172c0.04,0.011,0.08,0.016,0.119,0.016   c0.198,0,0.379-0.131,0.434-0.331l0.479-1.745c0.066-0.239-0.075-0.487-0.315-0.553c-0.24-0.067-0.488,0.075-0.553,0.314   l-0.479,1.745C71.485,19.859,71.626,20.107,71.866,20.172z M70.908,23.661c0.04,0.011,0.08,0.016,0.12,0.016   c0.197,0,0.379-0.131,0.433-0.331l0.479-1.744c0.066-0.24-0.075-0.488-0.315-0.553c-0.241-0.067-0.487,0.075-0.553,0.315   l-0.479,1.744C70.527,23.347,70.668,23.595,70.908,23.661z M69.95,27.149c0.04,0.011,0.08,0.017,0.12,0.017   c0.197,0,0.379-0.131,0.433-0.331l0.479-1.745c0.066-0.24-0.075-0.487-0.315-0.553c-0.239-0.067-0.488,0.075-0.553,0.315   l-0.479,1.745C69.569,26.836,69.709,27.084,69.95,27.149z M68.992,30.638c0.04,0.011,0.08,0.016,0.12,0.016   c0.197,0,0.379-0.131,0.433-0.331l0.479-1.744c0.066-0.239-0.075-0.487-0.315-0.553c-0.239-0.068-0.487,0.075-0.553,0.314   l-0.479,1.744C68.611,30.325,68.752,30.573,68.992,30.638z M36.106,33.892c0.089,0.102,0.213,0.153,0.337,0.153   c0.106,0,0.212-0.037,0.298-0.113c0.187-0.164,0.204-0.449,0.04-0.635l-1.153-1.307c-0.165-0.187-0.449-0.204-0.635-0.04   c-0.187,0.165-0.205,0.449-0.04,0.635L36.106,33.892z M29.186,26.048c0.089,0.101,0.213,0.152,0.337,0.152   c0.106,0,0.212-0.037,0.298-0.112c0.187-0.165,0.204-0.449,0.04-0.635l-1.154-1.308c-0.165-0.187-0.45-0.204-0.635-0.04   c-0.187,0.165-0.204,0.449-0.04,0.635L29.186,26.048z M26.879,23.434c0.089,0.101,0.213,0.152,0.337,0.152   c0.106,0,0.212-0.037,0.298-0.113c0.187-0.164,0.204-0.449,0.04-0.635l-1.154-1.307c-0.165-0.187-0.449-0.204-0.635-0.04   c-0.187,0.165-0.205,0.449-0.04,0.635L26.879,23.434z M33.048,56.37c-0.241-0.06-0.485,0.087-0.545,0.329l-0.458,1.851   c-0.06,0.241,0.087,0.485,0.329,0.545c0.037,0.009,0.073,0.013,0.109,0.013c0.202,0,0.386-0.137,0.437-0.342l0.458-1.851   C33.437,56.673,33.29,56.429,33.048,56.37z M32.132,60.071c-0.24-0.059-0.486,0.087-0.545,0.329l-0.458,1.851   c-0.06,0.241,0.087,0.485,0.329,0.545c0.037,0.009,0.072,0.013,0.108,0.013c0.202,0,0.386-0.137,0.437-0.342l0.458-1.851   C32.521,60.375,32.374,60.13,32.132,60.071z M33.964,52.668c-0.241-0.058-0.485,
0.087-0.545,0.329l-0.458,1.85   c-0.06,0.242,0.087,0.485,0.329,0.545c0.036,0.009,0.072,0.013,0.108,0.013c0.202,0,0.386-0.137,0.437-0.342l0.458-1.85   C34.353,52.972,34.205,52.729,33.964,52.668z M37.627,37.864c-0.243-0.059-0.486,0.087-0.545,0.329l-0.458,1.85   c-0.06,0.242,0.087,0.485,0.329,0.545c0.036,0.009,0.072,0.013,0.108,0.013c0.202,0,0.386-0.137,0.437-0.342l0.458-1.85   C38.016,38.167,37.868,37.924,37.627,37.864z M36.711,41.565c-0.243-0.058-0.485,0.087-0.545,0.329l-0.458,1.851   c-0.06,0.241,0.087,0.485,0.329,0.545c0.037,0.009,0.073,0.013,0.109,0.013c0.202,0,0.386-0.137,0.437-0.342l0.458-1.851   C37.1,41.869,36.953,41.625,36.711,41.565z M34.879,48.967c-0.242-0.059-0.485,0.087-0.545,0.329l-0.458,1.851   c-0.06,0.241,0.087,0.485,0.329,0.545c0.037,0.009,0.073,0.013,0.109,0.013c0.202,0,0.386-0.137,0.437-0.342l0.458-1.851   C35.268,49.271,35.121,49.027,34.879,48.967z M35.795,45.266c-0.242-0.06-0.486,0.087-0.545,0.329l-0.458,1.851   c-0.06,0.241,0.087,0.485,0.329,0.545c0.036,0.009,0.072,0.013,0.108,0.013c0.202,0,0.386-0.137,0.437-0.342l0.458-1.851   C36.184,45.57,36.037,45.326,35.795,45.266z M24.404,65.512l-1.845,0.251c-0.247,0.034-0.419,0.261-0.385,0.507   c0.031,0.226,0.224,0.389,0.446,0.389c0.02,0,0.041-0.001,0.061-0.004l1.845-0.251c0.247-0.034,0.419-0.261,0.386-0.507   C24.878,65.651,24.652,65.481,24.404,65.512z M28.094,65.009l-1.845,0.251c-0.247,0.034-0.419,0.261-0.385,0.507   c0.031,0.226,0.224,0.389,0.446,0.389c0.02,0,0.04-0.001,0.061-0.004l1.845-0.251c0.247-0.034,0.419-0.261,0.385-0.507   C28.568,65.148,28.342,64.976,28.094,65.009z M20.715,66.015l-1.845,0.251c-0.247,0.034-0.419,0.261-0.386,0.507   c0.031,0.226,0.224,0.389,0.446,0.389c0.02,0,0.041-0.001,0.061-0.004l1.845-0.251c0.247-0.034,0.419-0.261,0.386-0.507   C21.188,66.154,20.962,65.98,20.715,66.015z M17.025,66.518L15.18,66.77c-0.247,0.034-0.419,0.261-0.386,0.507   c0.031,0.226,0.224,0.389,0.446,0.389c0.021,0,0.041-0.001,0.061-0.004l1.845-0.251c0.247-0.034,0.419-0.261,0.386-0.507   C17.498,66.656,17.272,66.485,17.025,66.518z M92.463,60.231c0.001,0.008-0.002,0.014-0.001,0.021   c0.007,0.054-0.006,0.108-0.009,0.163c-0.004,0.062,0.001,0.126-0.016,0.185c-0.009,0.033-0.032,0.062-0.045,0.094   c-0.031,0.077-0.062,0.153-0.112,0.217c-0.003,0.004-0.004,0.01-0.007,0.014L76.396,80.709c-0.015,0.019-0.038,0.026-0.054,0.043   c-0.02,0.021-0.03,0.049-0.052,0.069c-0.025,0.022-0.057,0.031-0.083,0.05c-0.023,0.016-0.038,0.041-0.062,0.055L54.523,93.409   c-0.036,0.021-0.074,0.031-0.11,0.045c-0.028,0.012-0.053,0.025-0.082,0.034c-0.082,0.025-0.165,0.04-0.248,0.04   c-0.004,0-0.007,0.002-0.01,0.002c-0.012,0-0.023-0.004-0.035-0.005c-0.07-0.002-0.139-0.011-0.206-0.029   c-0.005-0.001-0.009-0.001-0.014-0.002l-27.244-8.014c-0.022-0.007-0.039-0.023-0.06-0.032c-0.048-0.018-0.09-0.044-0.135-0.07   c-0.037-0.022-0.081-0.034-0.114-0.061c-0.027-0.021-0.043-0.053-0.068-0.077c-0.018-0.018-0.042-0.024-0.058-0.044L11.815,68.17   c-0.016-0.019-0.02-0.042-0.034-0.063c-0.042-0.057-0.074-0.118-0.102-0.186c-0.017-0.041-0.032-0.081-0.042-0.124   c-0.007-0.027-0.023-0.051-0.027-0.08L7.545,39.762c-0.001-0.006,0.002-0.011,0.001-0.018c-0.002-0.019,0-0.037-0.002-0.056   c0-0.014-0.008-0.025-0.009-0.039c-0.001-0.043,0.017-0.082,0.022-0.124c0-0.006,0-0.012,0.001-0.017   c0.005-0.037,0-0.075,0.009-0.11c0.005-0.019,0.016-0.036,0.022-0.055c0.019-0.057,0.05-0.105,0.08-0.157   c0.019-0.033,0.03-0.07,0.053-0.101c0.004-0.006,0.005-0.014,0.01-0.02l15.878-19.784c0.034-0.042,0.082-0.066,0.122-0.101   c0.044-0.039,0.078-0.085,0.13-0.115L45.487,6.585c0.005-0.002,0.011-0.002,0.016-0.005c0.033-0.018,0.07-0.022,0.104-0.036   c0.062-0.025,0.122-0.053,0.189-0.063c0.014-0.002,0.027-0.008,0.041-0.01c0,0,0,0,0.001,0c0.053-0.006,0.104,0.007,0.157,0.011   c0.042,0.003,0.083-0.008,0.126,0.001c0.008,0.002,0.014,0.007,0.022,0.009c0.013,0.003,0.026,0.004,0.039,0.007   c0.003,0.001,0.007,0,0.01,0.001l27.243,8.016c0.026,0.008,0.045,0.027,0.07,0.037c0.058,0.022,0.109,0.051,0.162,0.085   c0.052,0.033,0.097,0.068,0.14,0.111c0.02,0.02,0.045,0.029,0.063,0.051l14.324,17.023c0.017,0.02,0.021,0.044,0.036,0.064   c0.034,0.048,0.058,0.098,0.082,0.151c0.026,0.058,0.049,0.113,0.062,0.174c0.004,0.022,0.019,0.039,0.022,0.062L92.463,60.231z    M44.437,18.995l22.687,13.667c0.072-0.114,0.188-0.198,0.333-0.211l0.586-0.054l0.156-0.567c0.065-0.24,0.313-0.382,0.553-0.315   c0.24,0.065,0.381,0.313,0.315,0.553l-0.198,0.72l0.283,0.692c0.031,0.076,0.033,0.154,0.022,0.23   c0.061,0.046,0.114,0.103,0.145,0.179l0.032,0.078l16.411-2.236L73.075,16.655C73.03,16.67,72.991,16.7,72.942,16.7   c-0.04,0-0.08-0.005-0.119-0.017c-0.24-0.065-0.381-0.313-0.315-0.553l0.002-0.008L46.62,8.504L44.437,18.995z M61.092,63.579   l6.985-28.24l-2.941-1.772l-1.386,0.126c-0.014,0.001-0.028,0.002-0.042,0.002c-0.23,0-0.426-0.175-0.448-0.409   c-0.022-0.248,0.16-0.466,0.407-0.489l0.165-0.015L43.516,20.543l-10.232,8.803c0.011,0.011,0.026,0.016,0.037,0.028l1.153,1.308   c0.165,0.187,0.147,0.471-0.04,0.635c-0.085,0.076-0.191,0.112-0.297,0.112c-0.125,0-0.249-0.051-0.338-0.152l-1.153-1.308   c-0.013-0.015-0.018-0.033-0.029-0.049l-11.292,9.715l9.868,24.136c0.008,0.001,0.015-0.001,0.023,0.001   c0.241,0.06,0.389,0.304,0.329,0.545l-0.048,0.197l0.102,0.249c0.001,0.002,0,0.005,0.001,0.007l0.116,0.284l0.183,0.11   c0.213,0.128,0.281,0.405,0.153,0.618c-0.007,0.012-0.019,0.016-0.027,0.026l0.169,0.413l0.84-0.077   c0.119-0.076,0.266-0.089,0.402-0.036L61.092,63.579z M10.346,38.688l9.559-0.206l11.512-9.904l-1.079-1.222   c-0.164-0.187-0.146-0.471,0.04-0.635c0.186-0.164,0.471-0.147,0.635,0.04l1.085,1.23l10.506-9.039l2.041-9.801L25.3,20.316   c0.094,0.179,0.066,0.403-0.093,0.543c-0.085,0.076-0.191,0.112-0.297,0.112c-0.095,0-0.186-0.04-0.265-0.099L10.346,38.688z    M30.663,67.235l-0.647-1.582c-0.005,0-0.011,0.001-0.016,0.001c-0.222,0-0.415-0.164-0.446-0.389   c-0.021-0.151,0.043-0.29,0.147-0.386l-10.053-24.59L9.474,40.508l3.855,26.513l0.005-0.001c0.247-0.031,0.474,0.139,0.507,0.385   c0.015,0.108-0.015,0.209-0.068,0.295l12.641,15.022L30.663,67.235z M74.291,79.917l-7.021-7.955l-0.726,0.624   c-0.084,0.074-0.189,0.109-0.293,0.109c-0.126,0-0.252-0.053-0.341-0.157c-0.162-0.188-0.141-0.473,0.047-0.635l0.717-0.617   l-5.235-5.932L35.241,67.75c-0.087,0.117-0.217,0.188-0.355,0.188c-0.079,0-0.159-0.021-0.231-0.065l-0.101-0.061l-2.237,0.205   L27.931,84l25.901,7.619c0.066-0.221,0.286-0.361,0.517-0.312c0.045,0.009,0.084,0.031,0.123,0.052L74.291,79.917z M90.259,60.559   c-0.022-0.052-0.036-0.108-0.037-0.169c-0.005-0.227,0.163-0.411,0.38-0.446l-3.86-26.528l-16.713,2.277   c0.015,0.189-0.087,0.375-0.272,0.451c-0.008,0.003-0.016,0.002-0.022,0.004L62.8,64.175l12.862,14.574L90.259,60.559z"/></g></svg>