<?xml version="1.0" encoding="UTF-8" standalone="no"?>
<svg
   xml:space="preserve"
   version="1.1"
   style="shape-rendering:geometricPrecision;text-rendering:geometricPrecision;image-rendering:optimizeQuality;"
   viewBox="0 0 60000 75000"
   x="0px"
   y="0px"
   fill-rule="evenodd"
   clip-rule="evenodd"
   id="svg1"
   sodipodi:docname="icosahedron.svg"
   inkscape:version="1.4.3 (0d15f75042, 2025-12-25)"
   xmlns:inkscape="http://www.inkscape.org/namespaces/inkscape"
   xmlns:sodipodi="http://sodipodi.sourceforge.net/DTD/sodipodi-0.dtd"
   xmlns="http://www.w3.org/2000/svg"
   xmlns:svg="http://www.w3.org/2000/svg"><sodipodi:namedview
     id="namedview1"
     pagecolor="#ffffff"
     bordercolor="#000000"
     borderopacity="0.25"
     inkscape:showpageshadow="2"
     inkscape:pageopacity="0.0"
     inkscape:pagecheckerboard="0"
     inkscape:deskcolor="#d1d1d1"
     inkscape:zoom="0.010813333"
     inkscape:cx="30009.248"
     inkscape:cy="37500"
     inkscape:window-width="1920"
     inkscape:window-height="1020"
     inkscape:window-x="0"
     inkscape:window-y="0"
     inkscape:window-maximized="1"
     inkscape:current-layer="g1" /><defs
     id="defs1"><style
       type="text/css"
       id="style1">
   
    .fil0 {fill:black;fill-rule:nonzero}
   
  </style></defs><g
     id="g1"
     transform="translate(-1.4919854e-6,8045.6232)"><path
       class="fil0"
       d="m 42130.467,35717.781 10823,5801 v -24766 l -10759,18856 v 0 z m 282,-14825 236,441 -837,449 c 131,223 258,446 386,670 l -434,248 -131,-229 -183,-280 -366,-607 447,-220 881,-472 z m -12423,20833 568,9 -113,1305 -500,-6 z m -62,2808 500,6 -11,1000 -500,-6 z m -28,2500 500,6 -11,1000 -500,-6 z m -28,2500 500,6 -11,1000 -500,-6 z m -28,2500 500,6 -11,1000 -500,-6 z m 211,-10975 -436,244 -488,-873 436,-244 z m -1220,-2182 -436,244 -488,-873 436,-244 z m -1220,-2182 -436,244 -347,-622 h -7456 l 10826,18152 10655,-18152 h -13453 z m -1220,-2182 -436,244 -488,-873 436,-244 z m -1220,-2182 -436,244 -394,-705 -94,-163 433,-250 c 168,290 329,583 492,875 z m -1243,-2173 -433,250 -475,-821 -3314,5931 h 21223 l -5314,-9509 -5297,-9480 -7248,12970 358,-207 501,866 z m -1252,-2164 -433,250 -501,-866 433,-250 z m -1252,-2164 -433,250 -501,-866 433,-250 z m -1252,-2164 -433,250 -501,-866 433,-250 z m -1415,-1874 795,7 4,-500 -836,-7 -866,-453 -232,443 652,341 c -145,243 -286,485 -428,729 l 432,252 265,-456 212,-356 z m 2295,20 4,-500 1000,9 -4,500 z m 2500,22 4,-500 1000,9 -4,500 z m 2500,22 4,-500 646,6 3010,-5386 -7501,24 -97,162 -270,-161 -14290.0001,45 6982.0001,11993 40,-69 432,252 -183,314 3962,6805 5,9 48,81 7584,-13571 -373,-3 z m 2500,22 4,-500 1000,9 -4,500 z m 2501,18 2,-500 1000,4 -2,500 z m 2904,-489 598,2 -2,500 -316,-1 3410,6102 141,-252 437,244 -291,521 3653,6538 3613,-6332 -218,-382 434,-248 72,125 7108,-12456 -14241,131 47,81 -431,253 -193,-329 -6860,63 3040,5440 z m 2096,508 2,-500 1000,4 -2,500 z m 2500,10 2,-500 1000,4 -2,500 z m 1670,1467 437,244 -487,873 -437,-244 z m -1218,2183 437,244 -487,873 -437,-244 z m -2436,4367 437,244 -487,873 -437,-244 z m -1218,2183 436,244 -488,873 -436,-244 z m -1220,2182 436,244 -488,873 -436,-244 z m -1220,2182 436,244 -488,873 -436,-244 z m -1220,2182 436,244 -488,873 -436,-244 z m -1220,2182 436,244 -356,638 -568,-9 z m -1873,-36544.0005 429,256 -512,859 -429,-256 z m -1281,2147 429,256 -512,859 -429,-256 z m -1281,2147 429,256 -512,859 -429,-256 z m -1281,2147.0005 429,256 -512,859 -429,-256 z m -1281,2147 429,256 -512,859 -429,-256 z m -1281,2147 260,155 7455,-23 -141,-12468.0005 -11004,6353 v -1 l -1,1 -10711.0001,6184.0005 14049.0001,-44 93,-156 z m -1281,2147 429,256 -512,859 -429,-256 z m -1281,2147 429,256 -512,859 -429,-256 z m -2544,4307 432,252 -503,864 -432,-252 z m -1258,2161 432,252 -503,864 -432,-252 z m -1757,3027 -3,-2 1,-2 -6701.0001,-11511 v 24208 l 10807.0001,-5649 -72,-122 c -4,-6 -7,-12 -11,-18 l -4020,-6905 z m -758,1294 432,252 -503,864 -432,-252 z m -1258,2161 432,252 -503,864 -432,-252 z m -1258,2161 432,252 -503,864 -432,-252 z m -1258.0001,2161 432,252 -503,864 -432,-252 z m -1258,2161 432,252 -503,864 -432,-252 z m 603,3395 2,-500 370,3 -2,500 z m 1870.0001,8 2,-500 1000,3 -2,500 z m 2500,8 2,-500 1000,3 -2,500 z m 2500,8 2,-500 1000,3 -2,500 z m 2500,8 2,-500 1000,3 -2,500 z m 2500,8 2,-500 895,3 -3068,-5144 -10789.0001,5640 10945.0001,6319 c 7,4 15,8 22,12 l 10617,6130 -7624,-12782 -1,325 -1000,-3 z m 2500,8 2,-500 1000,3 -2,500 z m 2500,8 2,-500 1000,3 -2,500 z m 2500,8 2,-500 1000,3 -2,500 z m 2498,12 5,-500 1000,9 -5,500 z m 2500,23 5,-500 1000,9 -5,500 z m 2500,23 5,-500 1000,9 -5,500 z m 2500,23 v 0 l -7219,12298 10517,-6072 v 1 l 10975,-6336 -10808,-5793 -3173,5406 713,7 -5,500 -1000,-9 z m 2500,23 5,-500 1000,9 -5,500 z m 2500,23 5,-500 1000,9 -5,500 z m 2500,23 5,-500 1000,9 -5,500 z m 2500,23 5,-500 1000,9 -5,500 z m 2500,23 5,-500 1000,9 -5,500 z m 1348,-2600 -434,248 -496,-869 434,-248 z m -1239,-2171 -434,248 -496,-869 434,-248 z m -1239,-2171 -434,248 -496,-869 434,-248 z m -1239,-2171 -434,248 -496,-869 434,-248 z m -1239,-2171 -434,248 -496,-869 434,-248 z m -2478,-4343 -434,248 -496,-869 434,-248 z m -1239,-2171 -434,248 -496,-869 434,-248 z m -2501,-4333 -431,253 -506,-862 431,-253 z m -1266,-2156 -431,253 -506,-862 431,-253 z m -2531,-4312 -431,253 -506,-862 431,-253 z m -1266,-2156 -431,253 -506,-862 431,-253 z m -1266,-2156.0005 -431,253 -506,-862 431,-253 z m -1266,-2156 -431,253 -506,-862 431,-253 z m -1266,-2156 -431,253 -506,-862 431,-253 z M 8757.4669,16651.781 l 232,-443 886,463 -232,443 z m 2216.0001,1158 232,-443 886,463 -232,443 z m 2216,1158 232,-443 886,463 -232,443 z m 2216,1158 232,-443 886,463 -232,443 z m 35815,-3954 236,441 -881,472 -236,-441 z m -2203,1181 236,441 -881,472 -236,-441 z m -2203,1181 236,441 -881,472 -236,-441 z m -2203,1181 236,441 -881,472 -236,-441 z m -14246,-18032.0005 11590,6691 c 7,4 14,8 21,13 l 11430.005,6599.0005 c 26,8 51,19 75,33 26,15 50,32 71,52 125,74 195,207 196,343 h 2 v 26776 c 0,162 -96,301 -234,364 l -11561.005,6675 v 1 l -11594,6694 c -130,75 -284,69 -404,-3 l -11590,-6691 c -7,-4 -14,-8 -21,-13 l -11572.0001,-6681 c -128,-74 -200,-208 -200,-345 h -2 v -26035 c 0,-772 -127,-859 464,-1237 L 18366.467,8376.7805 v -1 l 11594,-6694 c 130,-75 284,-69 404,3 z m 11190,7382 -10988,-6344 141,12454.0005 21096,-193 -10227,-5904.0005 c -7,-4 -15,-8 -22,-12 z"
       id="path1" /></g></svg>
