<svg xmlns="http://www.w3.org/2000/svg" viewBox="0 0 512 640" x="0px" y="0px"><g><g data-name="Outline"><path d="M122.161,344.153c-11.17-2.315-37.338,1.4-60.534,16.912-21.81,14.581-35.979,36.17-40.976,62.434-2.931,15.387,2.147,28.728,13.92,38.025,41.953,33.133,120.285,58.215,202.039,40.962,1.135-.257,28.195-6.5,64.53-23.2C358.887,450.812,414.089,417,458.245,338.208c16.875-31.71,36.423-82.955,33.713-147.067a343.4,343.4,0,0,0-13.906-74.353C462.009,64.051,435.234,26.642,400.623,8.6c-23.5-12.249-55.856,4.629-75.668,27.631-19.994,23.214-33.261,59.142-10.536,90.362,27.376,37.609,23.961,103.269-7.944,152.732C284.588,313.259,231.541,366.8,122.161,344.153ZM42.019,452.113c-8.854-5.569-11.66-15.454-9.58-26.371,4.445-23.362,16.51-41.766,35.858-54.7,19.569-13.083,41.027-16.352,49.9-15.373,10.935,15.551-6.869,52.32-19.227,67.61C85.114,439.856,60.041,463.449,42.019,452.113Zm254.394,16.139c-34.207,15.752-60.583,22.091-62.367,22.51-80.719,15.219-138.224-5.315-172.573-25.585,18.335-5.462,33.3-17.445,46.918-34.472,15.635-20.143,28.825-48.461,24.083-72.456,40.521,6.507,77.238,3.178,109.3-9.938a159.9,159.9,0,0,0,47.8-30.4c2.588,18.15,17.366,40.96,36.019,59.613,18.887,18.1,35.792,30.792,57.547,35.328C353.1,439.1,320.817,457.014,296.413,468.252ZM334.047,44.065c19.064-22.134,45.077-32.8,60.714-24.97,3.743,2.592,6.194,6.716,7.27,12.282,2.709,14.012-3.7,34.948-16.339,53.336-18.765,27.309-42.035,39.62-62.621,33.292C306,92.786,317.391,63.4,334.047,44.065ZM322.215,289.55a47.806,47.806,0,0,0-7.672-.716c.675-1,1.361-1.986,2.016-3,31.3-48.524,36.837-111.975,14.984-154.224.832.042,1.665.07,2.5.07,21.564,0,43.653-14.138,61.541-40.17,13.723-19.973,20.716-42.325,18.711-59.284,27.724,23.4,43.516,59.342,52.2,87.807a337.926,337.926,0,0,1,13.476,71.675c2.585,61.162-16.034,110.145-32.109,140.465-14.62,27.577-29.844,45.166-34.554,50.3-.185-1.5-.429-3.036-.757-4.6a6,6,0,1,0-11.745,2.458,37.9,37.9,0,0,1,.867,7.68c0,3.249-.585,7.706-3.371,10.492-8.39,8.394-36.2-1.443-64.224-29.465-28.412-28.411-38.458-56.535-30.017-64.976,2.676-2.676,6.994-3.236,10.148-3.236a35.448,35.448,0,0,1,5.968.55,6,6,0,0,0,2.037-11.826Z"/><path d="M392.25,358.913a6,6,0,1,0,10.445-5.908,134.7,134.7,0,0,0-15.1-21.328,6,6,0,1,0-9.1,7.819A122.742,122.742,0,0,1,392.25,358.913Z"/><path d="M341.706,309.368a122.7,122.7,0,0,1,19.685,13.369,6,6,0,0,0,7.635-9.258A134.746,134.746,0,0,0,347.4,298.806a6,6,0,1,0-5.7,10.562Z"/></g></g><text x="0" y="527" fill="#000000" font-size="5px" font-weight="bold" font-family="'Helvetica Neue', Helvetica, Arial-Unicode, Arial, Sans-serif">Created by Flowicon</text><text x="0" y="532" fill="#000000" font-size="5px" font-weight="bold" font-family="'Helvetica Neue', Helvetica, Arial-Unicode, Arial, Sans-serif">from the Noun Project</text></svg>