<svg xmlns="http://www.w3.org/2000/svg" xmlns:xlink="http://www.w3.org/1999/xlink" version="1.1" x="0px" y="0px" viewBox="0 0 100 125" enable-background="new 0 0 100 100" xml:space="preserve"><path fill="#000000" d="M90.981,52.619c0.034-0.869,0.068-1.738,0.068-2.621C91.05,25.186,78.85,5,63.854,5  C51.435,5,40.939,18.846,37.696,37.695C18.85,40.938,5,51.426,5,63.844c0,14.998,20.186,27.199,44.998,27.199  c0.896,0,1.784-0.02,2.668-0.051C56.081,93.555,59.865,95,63.854,95c7.239,0,13.809-4.736,18.686-12.398  C90.25,77.719,95,71.113,95,63.844C95,59.844,93.561,56.043,90.981,52.619z M63.854,5.988c14.451,0,26.207,19.742,26.207,44.01  c0,0.484-0.016,0.963-0.025,1.443c-4.793-5.621-12.736-10.109-22.412-12.607c-1.049-3.164-2.578-6.113-4.627-8.637  c0.271-0.77,0.555-1.521,0.857-2.244v-0.002c0.002-0.002,0.002-0.002,0.004-0.004c0.699-1.73,2.092-3.201,3.547-3.742  c0.976-0.363,1.938-0.311,2.854,0.16c0.24,0.123,0.541,0.027,0.666-0.217c0.125-0.242,0.027-0.541-0.215-0.664  c-1.16-0.594-2.422-0.664-3.65-0.207c-1.703,0.635-3.32,2.322-4.119,4.299c0,0,0,0.002-0.001,0.004  c-2.599,6.209-4.031,14.184-4.031,22.457c0,5.961,0.771,11.762,2.165,16.867c-3.521,0.582-7.246,0.896-11.037,0.896  c-3.547,0-7.025-0.281-10.338-0.793c-1.314-5.238-2.055-10.979-2.055-17.01C37.643,25.73,49.401,5.988,63.854,5.988z M66.48,38.553  c-1.754-0.418-3.562-0.771-5.414-1.057c0.414-2.148,0.936-4.203,1.555-6.137C64.268,33.51,65.548,35.945,66.48,38.553z   M63.592,66.428c-0.509,0.107-1.021,0.211-1.54,0.307c-0.476-1.727-0.881-3.527-1.204-5.396c1.538,0.559,3.021,1.234,4.431,2.031  C64.778,64.426,64.217,65.447,63.592,66.428z M66.108,63.865c0.703,0.432,1.385,0.895,2.042,1.389  c-1.047,0.322-2.123,0.617-3.236,0.879C65.344,65.396,65.741,64.641,66.108,63.865z M38.642,66.844  c-2.569-0.441-5.012-1.039-7.289-1.771c1.879-1.432,3.98-2.582,6.224-3.475C37.865,63.395,38.226,65.143,38.642,66.844z   M63.854,94.01c-3.388,0-6.618-1.115-9.594-3.092c10.141-0.578,19.308-3.199,26.369-7.172C76.082,90.139,70.235,94.01,63.854,94.01z   M49.998,90.055c-24.267,0-44.009-11.758-44.009-26.211c0-11.867,13.325-21.906,31.529-25.119  c-0.563,3.604-0.864,7.381-0.864,11.273c0,3.65,0.272,7.197,0.771,10.598c-2.627,1.02-5.081,2.371-7.222,4.107  c-0.771-0.271-1.524-0.557-2.25-0.859c0,0-0.001,0-0.002-0.002c0,0-0.003,0-0.004-0.002c-1.731-0.699-3.201-2.094-3.742-3.547  c-0.363-0.977-0.311-1.936,0.16-2.854c0.124-0.242,0.027-0.541-0.216-0.666c-0.24-0.123-0.541-0.027-0.665,0.215  c-0.594,1.158-0.665,2.42-0.207,3.648c0.635,1.705,2.322,3.32,4.299,4.121h0.004c6.207,2.6,14.183,4.031,22.455,4.031  c8.077,0,15.904-1.369,22.036-3.852c2.249-0.867,4.101-2.639,4.716-4.512c0.438-1.33,0.256-2.682-0.525-3.91  c-0.147-0.23-0.453-0.297-0.683-0.15s-0.298,0.451-0.151,0.682c0.625,0.984,0.767,2.016,0.42,3.07c-0.6,1.822-2.508,3.27-4.14,3.9  c-0.767,0.309-1.562,0.602-2.38,0.877c-2.555-2.041-5.506-3.58-8.652-4.658c-0.506-3.271-0.779-6.703-0.779-10.199  c0-3.988,0.342-7.9,0.984-11.572c19.018,2.895,33.131,13.166,33.131,25.379C94.012,78.297,74.267,90.055,49.998,90.055z"/><text x="0" y="115" fill="#000000" font-size="5px" font-weight="bold" font-family="'Helvetica Neue', Helvetica, Arial-Unicode, Arial, Sans-serif">Created by Ates Evren Aydinel</text><text x="0" y="120" fill="#000000" font-size="5px" font-weight="bold" font-family="'Helvetica Neue', Helvetica, Arial-Unicode, Arial, Sans-serif">from the Noun Project</text></svg>