<svg xmlns="http://www.w3.org/2000/svg" xmlns:xlink="http://www.w3.org/1999/xlink" version="1.1" x="0px" y="0px" viewBox="0 0 100 125" enable-background="new 0 0 100 100" xml:space="preserve"><g><path d="M94.8,45.3c-0.9-6.8-2.9-13.1-6.5-19C83.7,19,76.9,12.7,69,9.2c0.2,0.1,0.4,0.2,0.7,0.3c-9.8-4.7-21-5.8-31.5-3   c-8.5,2.3-16.1,7.1-22,13.7C6.7,31,2.8,46.5,6.2,60.5c2.7,10.8,9.1,20,18.1,26.5c6.7,4.6,14.6,7.4,22.7,8   c9.3,0.6,18.6-1.7,26.5-6.6c8.7-5.4,14.9-13.4,18.7-22.8C94.8,59.3,95.4,52,94.8,45.3z M91.8,47.7c-0.6,7.5-3.6,14.6-9.1,19.8   c-5.1,4.9-11.9,7.7-18.9,8.4c-15.3,1.5-31.1-7.2-38.2-20.9c-5.9-11.5-5.7-26.6,2.7-36.9c4.5-5.5,11-8.9,17.9-10.1   c9.1-1.7,18.3,0.3,26.2,5.1C84.3,20.2,92.9,33.6,91.8,47.7C89.5,77.2,93.3,28.5,91.8,47.7z"/></g><text x="0" y="115" fill="#000000" font-size="5px" font-weight="bold" font-family="'Helvetica Neue', Helvetica, Arial-Unicode, Arial, Sans-serif">Created by Ryan Spiering</text><text x="0" y="120" fill="#000000" font-size="5px" font-weight="bold" font-family="'Helvetica Neue', Helvetica, Arial-Unicode, Arial, Sans-serif">from the Noun Project</text></svg>